<svg>

	<symbol width="30" height="30" viewBox="0 0 30 30" fill="none" xmlns="http://www.w3.org/2000/svg" id="menu">
		<path d="M3.75 22.5V20H26.25V22.5H3.75ZM3.75 16.25V13.75H26.25V16.25H3.75ZM3.75 10V7.5H26.25V10H3.75Z" fill="white"/>
	</symbol>

	<symbol width="23" height="23" viewBox="0 0 23 23" fill="none" xmlns="http://www.w3.org/2000/svg" id="loup">
		<path fill-rule="evenodd" clip-rule="evenodd" d="M5.55228 5.55222C5.01827 6.08623 4.59467 6.72019 4.30567 7.4179C4.01667 8.11562 3.86792 8.86342 3.86792 9.61862C3.86792 10.3738 4.01667 11.1216 4.30567 11.8193C4.59467 12.5171 5.01827 13.151 5.55228 13.685C6.08629 14.219 6.72024 14.6426 7.41796 14.9316C8.11567 15.2206 8.86348 15.3694 9.61868 15.3694C10.3739 15.3694 11.1217 15.2206 11.8194 14.9316C12.5171 14.6426 13.1511 14.219 13.6851 13.685C14.7325 12.6006 15.3121 11.1481 15.299 9.64047C15.2859 8.13283 14.6811 6.69066 13.615 5.62457C12.5489 4.55847 11.1068 3.95375 9.59913 3.94065C8.0915 3.92755 6.63904 4.50711 5.55458 5.55452L5.55228 5.55222ZM12.8709 12.8708C12.4455 13.3058 11.938 13.652 11.3779 13.8895C10.8177 14.127 10.216 14.251 9.60761 14.2544C8.9992 14.2577 8.39618 14.1404 7.83345 13.909C7.27072 13.6777 6.75947 13.3371 6.3293 12.9068C5.89912 12.4766 5.55857 11.9653 5.32737 11.4025C5.09616 10.8397 4.97889 10.2367 4.98235 9.6283C4.98581 9.0199 5.10992 8.41822 5.34751 7.85812C5.5851 7.29801 5.93144 6.79061 6.36648 6.36527C7.23244 5.51862 8.39736 5.04764 9.60842 5.05452C10.8195 5.0614 11.979 5.5456 12.8353 6.40204C13.6915 7.25848 14.1755 8.41805 14.1822 9.62911C14.1889 10.8402 13.7177 12.005 12.8709 12.8708Z" fill="white"/>
		<path d="M12.8708 14.5209C12.6552 14.3051 12.5341 14.0125 12.5342 13.7074C12.5343 13.4024 12.6556 13.1099 12.8714 12.8942C13.0871 12.6786 13.3798 12.5575 13.6848 12.5576C13.9899 12.5577 14.2824 12.679 14.498 12.8948L17.7502 16.1481C17.8601 16.2542 17.9477 16.3811 18.008 16.5214C18.0682 16.6617 18.0999 16.8126 18.1013 16.9653C18.1026 17.118 18.0735 17.2695 18.0157 17.4108C17.9579 17.5521 17.8725 17.6805 17.7645 17.7885C17.6565 17.8965 17.5281 17.9819 17.3868 18.0397C17.2455 18.0975 17.094 18.1266 16.9413 18.1253C16.7886 18.124 16.6377 18.0922 16.4974 18.032C16.3571 17.9717 16.2302 17.8841 16.1241 17.7743L12.8708 14.5209Z" fill="white"/>
	</symbol>


</svg>