<svg>

	<symbol width="30" height="30" viewBox="0 0 30 30" fill="none" xmlns="http://www.w3.org/2000/svg" id="menu">
		<path d="M3.75 22.5V20H26.25V22.5H3.75ZM3.75 16.25V13.75H26.25V16.25H3.75ZM3.75 10V7.5H26.25V10H3.75Z" fill="white"/>
	</symbol>

	<symbol width="23" height="23" viewBox="0 0 23 23" fill="none" xmlns="http://www.w3.org/2000/svg" id="loup">
		<path fill-rule="evenodd" clip-rule="evenodd" d="M5.55228 5.55222C5.01827 6.08623 4.59467 6.72019 4.30567 7.4179C4.01667 8.11562 3.86792 8.86342 3.86792 9.61862C3.86792 10.3738 4.01667 11.1216 4.30567 11.8193C4.59467 12.5171 5.01827 13.151 5.55228 13.685C6.08629 14.219 6.72024 14.6426 7.41796 14.9316C8.11567 15.2206 8.86348 15.3694 9.61868 15.3694C10.3739 15.3694 11.1217 15.2206 11.8194 14.9316C12.5171 14.6426 13.1511 14.219 13.6851 13.685C14.7325 12.6006 15.3121 11.1481 15.299 9.64047C15.2859 8.13283 14.6811 6.69066 13.615 5.62457C12.5489 4.55847 11.1068 3.95375 9.59913 3.94065C8.0915 3.92755 6.63904 4.50711 5.55458 5.55452L5.55228 5.55222ZM12.8709 12.8708C12.4455 13.3058 11.938 13.652 11.3779 13.8895C10.8177 14.127 10.216 14.251 9.60761 14.2544C8.9992 14.2577 8.39618 14.1404 7.83345 13.909C7.27072 13.6777 6.75947 13.3371 6.3293 12.9068C5.89912 12.4766 5.55857 11.9653 5.32737 11.4025C5.09616 10.8397 4.97889 10.2367 4.98235 9.6283C4.98581 9.0199 5.10992 8.41822 5.34751 7.85812C5.5851 7.29801 5.93144 6.79061 6.36648 6.36527C7.23244 5.51862 8.39736 5.04764 9.60842 5.05452C10.8195 5.0614 11.979 5.5456 12.8353 6.40204C13.6915 7.25848 14.1755 8.41805 14.1822 9.62911C14.1889 10.8402 13.7177 12.005 12.8709 12.8708Z" fill="white"/>
		<path d="M12.8708 14.5209C12.6552 14.3051 12.5341 14.0125 12.5342 13.7074C12.5343 13.4024 12.6556 13.1099 12.8714 12.8942C13.0871 12.6786 13.3798 12.5575 13.6848 12.5576C13.9899 12.5577 14.2824 12.679 14.498 12.8948L17.7502 16.1481C17.8601 16.2542 17.9477 16.3811 18.008 16.5214C18.0682 16.6617 18.0999 16.8126 18.1013 16.9653C18.1026 17.118 18.0735 17.2695 18.0157 17.4108C17.9579 17.5521 17.8725 17.6805 17.7645 17.7885C17.6565 17.8965 17.5281 17.9819 17.3868 18.0397C17.2455 18.0975 17.094 18.1266 16.9413 18.1253C16.7886 18.124 16.6377 18.0922 16.4974 18.032C16.3571 17.9717 16.2302 17.8841 16.1241 17.7743L12.8708 14.5209Z" fill="white"/>
	</symbol>

	<symbol width="46" height="46" viewBox="0 0 46 46" fill="none" xmlns="http://www.w3.org/2000/svg" id="person">
		<path fill-rule="evenodd" clip-rule="evenodd" d="M31.3334 16.7493C31.3334 18.9595 30.4554 21.0791 28.8926 22.6419C27.3298 24.2047 25.2102 25.0827 23.0001 25.0827C20.7899 25.0827 18.6703 24.2047 17.1075 22.6419C15.5447 21.0791 14.6667 18.9595 14.6667 16.7493C14.6667 14.5392 15.5447 12.4196 17.1075 10.8568C18.6703 9.29399 20.7899 8.41602 23.0001 8.41602C25.2102 8.41602 27.3298 9.29399 28.8926 10.8568C30.4554 12.4196 31.3334 14.5392 31.3334 16.7493ZM27.1667 16.7493C27.1667 17.8544 26.7278 18.9142 25.9464 19.6956C25.165 20.477 24.1052 20.916 23.0001 20.916C21.895 20.916 20.8352 20.477 20.0538 19.6956C19.2724 18.9142 18.8334 17.8544 18.8334 16.7493C18.8334 15.6443 19.2724 14.5845 20.0538 13.8031C20.8352 13.0217 21.895 12.5827 23.0001 12.5827C24.1052 12.5827 25.165 13.0217 25.9464 13.8031C26.7278 14.5845 27.1667 15.6443 27.1667 16.7493Z" fill="#7E6D51"/>
		<path fill-rule="evenodd" clip-rule="evenodd" d="M23 0.0830078C10.3438 0.0830078 0.083374 10.3434 0.083374 22.9997C0.083374 35.6559 10.3438 45.9163 23 45.9163C35.6563 45.9163 45.9167 35.6559 45.9167 22.9997C45.9167 10.3434 35.6563 0.0830078 23 0.0830078ZM4.25004 22.9997C4.25004 27.3538 5.73546 31.3622 8.22504 34.5455C9.97344 32.2495 12.229 30.3887 14.8155 29.1087C17.4021 27.8286 20.2495 27.1638 23.1355 27.1663C25.9841 27.1636 28.7957 27.8112 31.3561 29.0596C33.9166 30.3081 36.1583 32.1245 37.9105 34.3705C39.7156 32.003 40.931 29.2397 41.4561 26.3092C41.9812 23.3788 41.8009 20.3654 40.9302 17.5184C40.0595 14.6714 38.5234 12.0727 36.449 9.93725C34.3745 7.80181 31.8214 6.19105 29.0008 5.23823C26.1803 4.28542 23.1734 4.01795 20.2289 4.45795C17.2845 4.89795 14.4871 6.03278 12.0683 7.76854C9.64951 9.50429 7.67881 11.7911 6.31927 14.4397C4.95972 17.0883 4.25042 20.0225 4.25004 22.9997ZM23 41.7497C18.6958 41.7561 14.5214 40.2754 11.1834 37.558C12.527 35.6345 14.3153 34.0641 16.3963 32.9803C18.4772 31.8965 20.7892 31.3313 23.1355 31.333C25.4525 31.3312 27.7365 31.8821 29.7978 32.9401C31.8591 33.9982 33.6383 35.5327 34.9875 37.4163C31.6236 40.222 27.3804 41.7558 23 41.7497Z" fill="#7E6D51"/>
	</symbol>

	<symbol width="50" height="50" viewBox="0 0 50 50" fill="none" xmlns="http://www.w3.org/2000/svg" id="chart">
		<path d="M46.9379 8.54266L46.6268 8.66959V9.00563V49.5H0.903089L13.603 29.221L13.7641 28.9638L13.6103 28.7022C13.2316 28.0579 13.0291 27.325 13.0234 26.5774C13.0244 24.2583 14.8932 22.3887 17.208 22.3887C19.5234 22.3887 21.3926 24.2593 21.3926 26.5791C21.3926 26.9328 21.3385 27.2657 21.2513 27.615L21.149 28.0246L21.5358 28.1941L26.033 30.1641L26.3639 30.309L26.6055 30.0403C27.3614 29.1993 28.4788 28.6426 29.7002 28.6426C30.1895 28.6426 30.6652 28.7515 31.1436 28.9012L31.5316 29.0226L31.7296 28.6676L42.9101 8.62381L43.1228 8.24256L42.7737 7.98042C41.7708 7.22732 41.1309 6.02875 41.1309 4.69043C41.1309 2.37061 43 0.5 45.3154 0.5C45.8348 0.5 46.3075 0.608646 46.8041 0.784125L46.814 0.787659L46.9379 0.838198C48.4384 1.45024 49.5 2.95722 49.5 4.69043C49.5 6.42364 48.4384 7.93062 46.9379 8.54266ZM44.0037 47.373H44.5037V46.873V12.0388V10.1162L43.5671 11.7952L33.2923 30.2129L33.1556 30.458L33.2935 30.7023C33.665 31.3605 33.8848 32.0583 33.8848 32.833C33.8848 35.1528 32.0156 37.0235 29.7002 37.0235C27.3963 37.0235 25.5342 35.1714 25.5158 32.8675L25.5418 32.6848L25.5953 32.31L25.2491 32.1569L20.1585 29.9055L19.8964 29.7895L19.6639 29.9571C18.9596 30.4649 18.1234 30.7695 17.208 30.7695C16.7209 30.7695 16.2505 30.6613 15.791 30.4888L15.4089 30.3453L15.1918 30.691L5.19804 46.6072L4.71714 47.373H5.62149H44.0037Z" fill="#BCA182" stroke="#7E6D51"/>
	</symbol>

	<symbol width="52" height="54" viewBox="0 0 52 54" fill="none" xmlns="http://www.w3.org/2000/svg" id="book">
		<path d="M10.0909 11.5238L1 7.95238V41.15L26 52L51 41.15V6.7619L41.9091 11.5238M25.8864 9.14286V42.4762M10.0909 35.3333V2L26 9.14286L41.9091 2V35.3333L26 42.4762L10.0909 35.3333Z" stroke="#7E6D51" stroke-width="2"/>
	</symbol>

	<symbol width="50" height="50" viewBox="0 0 50 50" fill="none" xmlns="http://www.w3.org/2000/svg" id="flag">
		<path d="M17.3751 24.75H17.0477L18.077 23.87L25.1533 17.82L25.1535 17.8198C25.4709 17.5488 25.8747 17.3999 26.292 17.3999C26.7094 17.3999 27.1132 17.5488 27.4305 17.8198L27.4308 17.82L34.5044 23.8698L17.3751 24.75ZM17.3751 24.75C17.35 24.7975 17.3262 24.8457 17.3036 24.8947C17.122 25.2883 17.028 25.7166 17.028 26.15C17.028 26.15 17.028 26.15 17.028 26.15V33.75C17.028 34.2144 17.2128 34.6596 17.5415 34.9877C17.8701 35.3158 18.3156 35.5 18.78 35.5H23.162C23.4604 35.5 23.7467 35.3817 23.958 35.1708C24.1692 34.9599 24.288 34.6736 24.288 34.375V31.25C24.288 31.0513 24.3671 30.8607 24.508 30.7199C24.649 30.5792 24.8403 30.5 25.04 30.5H27.544C27.7437 30.5 27.9351 30.5792 28.0761 30.72C28.217 30.8607 28.296 31.0513 28.296 31.25V34.375C28.296 34.9969 28.8011 35.5 29.422 35.5H33.8041C34.2685 35.5 34.714 35.3158 35.0426 34.9877C35.3713 34.6596 35.5561 34.2144 35.5561 33.75V26.15C35.5561 25.7166 35.4621 25.2883 35.2805 24.8947C35.099 24.5011 34.8343 24.1516 34.5046 23.87L17.3751 24.75ZM4.50801 4.8875V5.3875H5.00801H47.5103C48.0431 5.40604 48.5481 5.62993 48.9191 6.01209C49.2917 6.39598 49.5 6.90946 49.5 7.44375C49.5 7.97804 49.2917 8.49152 48.9191 8.87541C48.5481 9.25758 48.0431 9.48146 47.5102 9.5H5.00801H4.50801V10V48.75C4.50801 48.9487 4.42897 49.1393 4.28803 49.28C4.14707 49.4208 3.95571 49.5 3.75601 49.5H1.252C1.0523 49.5 0.860939 49.4208 0.719974 49.28C0.579034 49.1393 0.5 48.9487 0.5 48.75V2.5C0.5 1.96983 0.710941 1.4612 1.08668 1.08607C1.46244 0.710908 1.97225 0.5 2.504 0.5C3.03576 0.5 3.54557 0.710908 3.92133 1.08607C4.29707 1.4612 4.50801 1.96983 4.50801 2.5V4.8875ZM8.01201 13.75C8.01201 13.5513 8.09105 13.3607 8.23199 13.22C8.37295 13.0792 8.56431 13 8.76401 13H43.8201C44.0198 13 44.2111 13.0792 44.3521 13.22C44.493 13.3607 44.5721 13.5513 44.5721 13.75V33.125C44.5721 35.4785 43.6356 37.7358 41.9685 39.4003C40.3014 41.0648 38.0401 42 35.6821 42H16.902C14.544 42 12.2827 41.0648 10.6156 39.4003C8.94844 37.7358 8.01201 35.4785 8.01201 33.125V13.75Z" fill="#BCA182" stroke="#7E6D51"/>
	</symbol>


</svg>