<svg>

	<symbol width="30" height="30" viewBox="0 0 30 30" fill="none" xmlns="http://www.w3.org/2000/svg" id="menu">
		<path d="M3.75 22.5V20H26.25V22.5H3.75ZM3.75 16.25V13.75H26.25V16.25H3.75ZM3.75 10V7.5H26.25V10H3.75Z" fill="white"/>
	</symbol>

	<symbol width="23" height="23" viewBox="0 0 23 23" fill="none" xmlns="http://www.w3.org/2000/svg" id="loup">
		<path fill-rule="evenodd" clip-rule="evenodd" d="M5.55228 5.55222C5.01827 6.08623 4.59467 6.72019 4.30567 7.4179C4.01667 8.11562 3.86792 8.86342 3.86792 9.61862C3.86792 10.3738 4.01667 11.1216 4.30567 11.8193C4.59467 12.5171 5.01827 13.151 5.55228 13.685C6.08629 14.219 6.72024 14.6426 7.41796 14.9316C8.11567 15.2206 8.86348 15.3694 9.61868 15.3694C10.3739 15.3694 11.1217 15.2206 11.8194 14.9316C12.5171 14.6426 13.1511 14.219 13.6851 13.685C14.7325 12.6006 15.3121 11.1481 15.299 9.64047C15.2859 8.13283 14.6811 6.69066 13.615 5.62457C12.5489 4.55847 11.1068 3.95375 9.59913 3.94065C8.0915 3.92755 6.63904 4.50711 5.55458 5.55452L5.55228 5.55222ZM12.8709 12.8708C12.4455 13.3058 11.938 13.652 11.3779 13.8895C10.8177 14.127 10.216 14.251 9.60761 14.2544C8.9992 14.2577 8.39618 14.1404 7.83345 13.909C7.27072 13.6777 6.75947 13.3371 6.3293 12.9068C5.89912 12.4766 5.55857 11.9653 5.32737 11.4025C5.09616 10.8397 4.97889 10.2367 4.98235 9.6283C4.98581 9.0199 5.10992 8.41822 5.34751 7.85812C5.5851 7.29801 5.93144 6.79061 6.36648 6.36527C7.23244 5.51862 8.39736 5.04764 9.60842 5.05452C10.8195 5.0614 11.979 5.5456 12.8353 6.40204C13.6915 7.25848 14.1755 8.41805 14.1822 9.62911C14.1889 10.8402 13.7177 12.005 12.8709 12.8708Z" fill="white"/>
		<path d="M12.8708 14.5209C12.6552 14.3051 12.5341 14.0125 12.5342 13.7074C12.5343 13.4024 12.6556 13.1099 12.8714 12.8942C13.0871 12.6786 13.3798 12.5575 13.6848 12.5576C13.9899 12.5577 14.2824 12.679 14.498 12.8948L17.7502 16.1481C17.8601 16.2542 17.9477 16.3811 18.008 16.5214C18.0682 16.6617 18.0999 16.8126 18.1013 16.9653C18.1026 17.118 18.0735 17.2695 18.0157 17.4108C17.9579 17.5521 17.8725 17.6805 17.7645 17.7885C17.6565 17.8965 17.5281 17.9819 17.3868 18.0397C17.2455 18.0975 17.094 18.1266 16.9413 18.1253C16.7886 18.124 16.6377 18.0922 16.4974 18.032C16.3571 17.9717 16.2302 17.8841 16.1241 17.7743L12.8708 14.5209Z" fill="white"/>
	</symbol>

	<symbol width="46" height="46" viewBox="0 0 46 46" fill="none" xmlns="http://www.w3.org/2000/svg" id="person">
		<path fill-rule="evenodd" clip-rule="evenodd" d="M31.3334 16.7493C31.3334 18.9595 30.4554 21.0791 28.8926 22.6419C27.3298 24.2047 25.2102 25.0827 23.0001 25.0827C20.7899 25.0827 18.6703 24.2047 17.1075 22.6419C15.5447 21.0791 14.6667 18.9595 14.6667 16.7493C14.6667 14.5392 15.5447 12.4196 17.1075 10.8568C18.6703 9.29399 20.7899 8.41602 23.0001 8.41602C25.2102 8.41602 27.3298 9.29399 28.8926 10.8568C30.4554 12.4196 31.3334 14.5392 31.3334 16.7493ZM27.1667 16.7493C27.1667 17.8544 26.7278 18.9142 25.9464 19.6956C25.165 20.477 24.1052 20.916 23.0001 20.916C21.895 20.916 20.8352 20.477 20.0538 19.6956C19.2724 18.9142 18.8334 17.8544 18.8334 16.7493C18.8334 15.6443 19.2724 14.5845 20.0538 13.8031C20.8352 13.0217 21.895 12.5827 23.0001 12.5827C24.1052 12.5827 25.165 13.0217 25.9464 13.8031C26.7278 14.5845 27.1667 15.6443 27.1667 16.7493Z" fill="#7E6D51"/>
		<path fill-rule="evenodd" clip-rule="evenodd" d="M23 0.0830078C10.3438 0.0830078 0.083374 10.3434 0.083374 22.9997C0.083374 35.6559 10.3438 45.9163 23 45.9163C35.6563 45.9163 45.9167 35.6559 45.9167 22.9997C45.9167 10.3434 35.6563 0.0830078 23 0.0830078ZM4.25004 22.9997C4.25004 27.3538 5.73546 31.3622 8.22504 34.5455C9.97344 32.2495 12.229 30.3887 14.8155 29.1087C17.4021 27.8286 20.2495 27.1638 23.1355 27.1663C25.9841 27.1636 28.7957 27.8112 31.3561 29.0596C33.9166 30.3081 36.1583 32.1245 37.9105 34.3705C39.7156 32.003 40.931 29.2397 41.4561 26.3092C41.9812 23.3788 41.8009 20.3654 40.9302 17.5184C40.0595 14.6714 38.5234 12.0727 36.449 9.93725C34.3745 7.80181 31.8214 6.19105 29.0008 5.23823C26.1803 4.28542 23.1734 4.01795 20.2289 4.45795C17.2845 4.89795 14.4871 6.03278 12.0683 7.76854C9.64951 9.50429 7.67881 11.7911 6.31927 14.4397C4.95972 17.0883 4.25042 20.0225 4.25004 22.9997ZM23 41.7497C18.6958 41.7561 14.5214 40.2754 11.1834 37.558C12.527 35.6345 14.3153 34.0641 16.3963 32.9803C18.4772 31.8965 20.7892 31.3313 23.1355 31.333C25.4525 31.3312 27.7365 31.8821 29.7978 32.9401C31.8591 33.9982 33.6383 35.5327 34.9875 37.4163C31.6236 40.222 27.3804 41.7558 23 41.7497Z" fill="#7E6D51"/>
	</symbol>

	<symbol width="50" height="50" viewBox="0 0 50 50" fill="none" xmlns="http://www.w3.org/2000/svg" id="chart">
		<path d="M46.9379 8.54266L46.6268 8.66959V9.00563V49.5H0.903089L13.603 29.221L13.7641 28.9638L13.6103 28.7022C13.2316 28.0579 13.0291 27.325 13.0234 26.5774C13.0244 24.2583 14.8932 22.3887 17.208 22.3887C19.5234 22.3887 21.3926 24.2593 21.3926 26.5791C21.3926 26.9328 21.3385 27.2657 21.2513 27.615L21.149 28.0246L21.5358 28.1941L26.033 30.1641L26.3639 30.309L26.6055 30.0403C27.3614 29.1993 28.4788 28.6426 29.7002 28.6426C30.1895 28.6426 30.6652 28.7515 31.1436 28.9012L31.5316 29.0226L31.7296 28.6676L42.9101 8.62381L43.1228 8.24256L42.7737 7.98042C41.7708 7.22732 41.1309 6.02875 41.1309 4.69043C41.1309 2.37061 43 0.5 45.3154 0.5C45.8348 0.5 46.3075 0.608646 46.8041 0.784125L46.814 0.787659L46.9379 0.838198C48.4384 1.45024 49.5 2.95722 49.5 4.69043C49.5 6.42364 48.4384 7.93062 46.9379 8.54266ZM44.0037 47.373H44.5037V46.873V12.0388V10.1162L43.5671 11.7952L33.2923 30.2129L33.1556 30.458L33.2935 30.7023C33.665 31.3605 33.8848 32.0583 33.8848 32.833C33.8848 35.1528 32.0156 37.0235 29.7002 37.0235C27.3963 37.0235 25.5342 35.1714 25.5158 32.8675L25.5418 32.6848L25.5953 32.31L25.2491 32.1569L20.1585 29.9055L19.8964 29.7895L19.6639 29.9571C18.9596 30.4649 18.1234 30.7695 17.208 30.7695C16.7209 30.7695 16.2505 30.6613 15.791 30.4888L15.4089 30.3453L15.1918 30.691L5.19804 46.6072L4.71714 47.373H5.62149H44.0037Z" fill="#BCA182" stroke="#7E6D51"/>
	</symbol>

	<symbol width="52" height="54" viewBox="0 0 52 54" fill="none" xmlns="http://www.w3.org/2000/svg" id="book">
		<path d="M10.0909 11.5238L1 7.95238V41.15L26 52L51 41.15V6.7619L41.9091 11.5238M25.8864 9.14286V42.4762M10.0909 35.3333V2L26 9.14286L41.9091 2V35.3333L26 42.4762L10.0909 35.3333Z" stroke="#7E6D51" stroke-width="2"/>
	</symbol>

	<symbol width="50" height="50" viewBox="0 0 50 50" fill="none" xmlns="http://www.w3.org/2000/svg" id="flag">
		<path d="M17.3751 24.75H17.0477L18.077 23.87L25.1533 17.82L25.1535 17.8198C25.4709 17.5488 25.8747 17.3999 26.292 17.3999C26.7094 17.3999 27.1132 17.5488 27.4305 17.8198L27.4308 17.82L34.5044 23.8698L17.3751 24.75ZM17.3751 24.75C17.35 24.7975 17.3262 24.8457 17.3036 24.8947C17.122 25.2883 17.028 25.7166 17.028 26.15C17.028 26.15 17.028 26.15 17.028 26.15V33.75C17.028 34.2144 17.2128 34.6596 17.5415 34.9877C17.8701 35.3158 18.3156 35.5 18.78 35.5H23.162C23.4604 35.5 23.7467 35.3817 23.958 35.1708C24.1692 34.9599 24.288 34.6736 24.288 34.375V31.25C24.288 31.0513 24.3671 30.8607 24.508 30.7199C24.649 30.5792 24.8403 30.5 25.04 30.5H27.544C27.7437 30.5 27.9351 30.5792 28.0761 30.72C28.217 30.8607 28.296 31.0513 28.296 31.25V34.375C28.296 34.9969 28.8011 35.5 29.422 35.5H33.8041C34.2685 35.5 34.714 35.3158 35.0426 34.9877C35.3713 34.6596 35.5561 34.2144 35.5561 33.75V26.15C35.5561 25.7166 35.4621 25.2883 35.2805 24.8947C35.099 24.5011 34.8343 24.1516 34.5046 23.87L17.3751 24.75ZM4.50801 4.8875V5.3875H5.00801H47.5103C48.0431 5.40604 48.5481 5.62993 48.9191 6.01209C49.2917 6.39598 49.5 6.90946 49.5 7.44375C49.5 7.97804 49.2917 8.49152 48.9191 8.87541C48.5481 9.25758 48.0431 9.48146 47.5102 9.5H5.00801H4.50801V10V48.75C4.50801 48.9487 4.42897 49.1393 4.28803 49.28C4.14707 49.4208 3.95571 49.5 3.75601 49.5H1.252C1.0523 49.5 0.860939 49.4208 0.719974 49.28C0.579034 49.1393 0.5 48.9487 0.5 48.75V2.5C0.5 1.96983 0.710941 1.4612 1.08668 1.08607C1.46244 0.710908 1.97225 0.5 2.504 0.5C3.03576 0.5 3.54557 0.710908 3.92133 1.08607C4.29707 1.4612 4.50801 1.96983 4.50801 2.5V4.8875ZM8.01201 13.75C8.01201 13.5513 8.09105 13.3607 8.23199 13.22C8.37295 13.0792 8.56431 13 8.76401 13H43.8201C44.0198 13 44.2111 13.0792 44.3521 13.22C44.493 13.3607 44.5721 13.5513 44.5721 13.75V33.125C44.5721 35.4785 43.6356 37.7358 41.9685 39.4003C40.3014 41.0648 38.0401 42 35.6821 42H16.902C14.544 42 12.2827 41.0648 10.6156 39.4003C8.94844 37.7358 8.01201 35.4785 8.01201 33.125V13.75Z" fill="#BCA182" stroke="#7E6D51"/>
	</symbol>

	<symbol width="9" height="17" viewBox="0 0 9 17" fill="none" xmlns="http://www.w3.org/2000/svg" id="location">
		<path d="M4.50008 14.45L4.22808 14.144C4.05808 13.974 0.0800781 9.28204 0.0800781 6.46004C0.0800781 4.01204 2.05208 2.04004 4.50008 2.04004C6.94808 2.04004 8.92008 4.01204 8.92008 6.46004C8.92008 9.28204 4.94208 13.974 4.77208 14.178L4.50008 14.45ZM4.50008 2.72004C2.42608 2.72004 0.760078 4.38604 0.760078 6.46004C0.760078 8.63604 3.61608 12.308 4.50008 13.396C5.38408 12.308 8.24008 8.63604 8.24008 6.46004C8.24008 4.38604 6.57408 2.72004 4.50008 2.72004Z" fill="#5E5E5E"/>
		<path d="M4.50005 8.15977C3.54805 8.15977 2.80005 7.41177 2.80005 6.45977C2.80005 5.50777 3.54805 4.75977 4.50005 4.75977C5.45205 4.75977 6.20005 5.50777 6.20005 6.45977C6.20005 7.41177 5.45205 8.15977 4.50005 8.15977ZM4.50005 5.43977C3.92205 5.43977 3.48005 5.88177 3.48005 6.45977C3.48005 7.03777 3.92205 7.47977 4.50005 7.47977C5.07805 7.47977 5.52005 7.03777 5.52005 6.45977C5.52005 5.88177 5.07805 5.43977 4.50005 5.43977Z" fill="#5E5E5E"/>
	</symbol>

	<symbol width="21" height="21" viewBox="0 0 21 21" fill="none" xmlns="http://www.w3.org/2000/svg" id="helmet">
		<path d="M8.63625 10.6317L7.875 5.65297C9.58296 5.11047 11.417 5.11047 13.125 5.65297L12.3638 10.6317C12.3025 11.0605 11.9263 11.3755 11.4888 11.3755H9.5025C9.29298 11.3757 9.09032 11.3008 8.93136 11.1643C8.77239 11.0279 8.66768 10.8389 8.63625 10.6317ZM19.25 14.0005C19.25 13.3092 18.8387 12.688 18.2 12.3992C17.7789 10.376 16.5863 8.59648 14.875 7.43797L13.335 11.673C13.2125 12.023 12.88 12.2505 12.5125 12.2505H8.4875C8.12 12.2505 7.7875 12.023 7.665 11.673L6.125 7.43797C4.41595 8.59474 3.22362 10.3707 2.8 12.3905C2.16125 12.688 1.75 13.3005 1.75 14.0005L7.39375 15.6105C7.70875 15.698 8.0325 15.7505 8.35625 15.7505H12.6263C12.95 15.7505 13.2737 15.698 13.5887 15.6105L19.25 14.0005Z" fill="#5D5D5D"/>
	</symbol>

	<symbol width="11" height="11" viewBox="0 0 11 11" fill="none" xmlns="http://www.w3.org/2000/svg" id="door">
		<path fill-rule="evenodd" clip-rule="evenodd" d="M3.4048 1.83305H4.45242V9.16638H3.4048C3.12695 9.16638 2.86048 9.05601 2.66402 8.85954C2.46755 8.66308 2.35718 8.39661 2.35718 8.11876V2.88067C2.35718 2.60282 2.46755 2.33636 2.66402 2.13989C2.86048 1.94342 3.12695 1.83305 3.4048 1.83305ZM5.86775 0.79224L7.96299 1.57795C8.16272 1.65282 8.33484 1.78688 8.45634 1.9622C8.57783 2.13752 8.64292 2.34575 8.64289 2.55905V8.44038C8.64292 8.65369 8.57783 8.86192 8.45634 9.03723C8.33484 9.21255 8.16272 9.34661 7.96299 9.42148L5.86775 10.2072C5.70924 10.2666 5.5387 10.2867 5.37072 10.2658C5.20274 10.2449 5.04233 10.1837 4.90321 10.0872C4.76409 9.99078 4.65041 9.86207 4.5719 9.7121C4.49339 9.56213 4.45239 9.39537 4.45242 9.2261V1.77334C4.45239 1.60406 4.49339 1.4373 4.5719 1.28733C4.65041 1.13736 4.76409 1.00865 4.90321 0.912217C5.04233 0.815781 5.20274 0.754492 5.37072 0.733598C5.5387 0.712703 5.70924 0.732825 5.86775 0.79224Z" stroke="black" stroke-linecap="round" stroke-linejoin="round"/>
		<path d="M5.50001 6.02321C5.7893 6.02321 6.02382 5.78869 6.02382 5.4994C6.02382 5.2101 5.7893 4.97559 5.50001 4.97559C5.21071 4.97559 4.9762 5.2101 4.9762 5.4994C4.9762 5.78869 5.21071 6.02321 5.50001 6.02321Z" fill="black"/>
	</symbol>

	<symbol width="12" height="12" viewBox="0 0 12 12" fill="none" xmlns="http://www.w3.org/2000/svg" id="square">
		<g clip-path="url(#clip0_704_700)">
			<path d="M2.005 0C1.47324 0 0.963261 0.21124 0.587251 0.587251C0.21124 0.963261 0 1.47324 0 2.005L0 9.995C0 11.1 0.9 11.995 2.005 12H9.995C11.1 12 12 11.1 12 9.995V2C11.9987 1.46911 11.7869 0.960412 11.411 0.585482C11.0351 0.210552 10.5259 -1.65077e-06 9.995 0L2 0H2.005ZM2.815 2.18H9.185C9.535 2.18 9.815 2.465 9.815 2.815V9.185C9.815 9.535 9.535 9.82 9.185 9.82H2.815C2.465 9.82 2.185 9.535 2.185 9.185V2.815C2.18499 2.64745 2.25121 2.48669 2.36922 2.36775C2.48722 2.2488 2.64746 2.18132 2.815 2.18ZM4.73 4.355C4.6332 4.355 4.54036 4.39346 4.47191 4.46191C4.40346 4.53036 4.365 4.6232 4.365 4.72V7.265C4.365 7.465 4.525 7.625 4.725 7.625H7.275C7.37094 7.62501 7.46303 7.58724 7.53134 7.51987C7.59965 7.45249 7.63869 7.36093 7.64 7.265V4.72C7.64 4.67207 7.63056 4.6246 7.61222 4.58032C7.59387 4.53604 7.56699 4.4958 7.53309 4.46191C7.4992 4.42801 7.45896 4.40113 7.41468 4.38278C7.3704 4.36444 7.32293 4.355 7.275 4.355H4.725H4.73Z" fill="#5D5D5D"/>
		</g>
		<defs>
			<clipPath id="clip0_704_700">
				<rect width="12" height="12" fill="white"/>
			</clipPath>
		</defs>
	</symbol>

	<symbol width="6" height="4" viewBox="0 0 6 4" fill="none" xmlns="http://www.w3.org/2000/svg" id="small-arrow-up">
		<path d="M0.0342879 3.85708C0.0597515 3.90015 0.0979691 3.93623 0.144816 3.96142C0.191663 3.98661 0.24536 3.99995 0.300112 4L5.70061 4C5.75527 3.9998 5.80882 3.98636 5.85552 3.96113C5.90223 3.9359 5.94031 3.89984 5.96567 3.85681C5.99103 3.81379 6.00272 3.76543 5.99947 3.71694C5.99622 3.66846 5.97816 3.62168 5.94724 3.58163L3.24699 0.115201C3.21946 0.0796721 3.18263 0.0506229 3.13967 0.0305545C3.09671 0.0104861 3.0489 2.18844e-07 3.00036 2.14601e-07C2.95183 2.10357e-07 2.90402 0.0104861 2.86106 0.0305545C2.81809 0.0506229 2.78126 0.0796721 2.75374 0.115201L0.0534892 3.58163C0.0222602 3.62159 0.00395778 3.6684 0.000572706 3.71697C-0.00281284 3.76553 0.00884868 3.81399 0.0342879 3.85708ZM3.00036 0.735424L5.12816 3.4667L0.872566 3.4667L3.00036 0.735424Z" fill="white"/>
	</symbol>

	<symbol width="24" height="24" viewBox="0 0 24 24" fill="none" xmlns="http://www.w3.org/2000/svg" id="telegram">
		<path d="M21 5L2 12.5L9 13.5M21 5L18.5 20L9 13.5M21 5L9 13.5M9 13.5V19L12.249 15.723" stroke="white" stroke-width="1.5" stroke-linecap="round" stroke-linejoin="round"/>
	</symbol>

	<symbol width="44" height="44" viewBox="0 0 44 44" fill="none" xmlns="http://www.w3.org/2000/svg" id="quote-right">
		<path d="M37.2331 32.4643C40.6926 28.7097 40.3443 23.888 40.3333 23.833V9.16634C40.3333 8.68011 40.1402 8.2138 39.7963 7.86998C39.4525 7.52616 38.9862 7.33301 38.5 7.33301L27.5 7.33301C25.4778 7.33301 23.8333 8.97751 23.8333 10.9997L23.8333 23.833C23.8333 24.3192 24.0265 24.7856 24.3703 25.1294C24.7141 25.4732 25.1804 25.6663 25.6666 25.6663H31.3096C31.2709 26.5727 31.0001 27.454 30.5231 28.2257C29.5918 29.6942 27.8373 30.697 25.3055 31.203L23.8333 31.4963V36.6663H25.6666C30.7688 36.6663 34.661 35.2528 37.2331 32.4643ZM17.0536 32.4643C20.515 28.7097 20.1648 23.888 20.1538 23.833L20.1538 9.16634C20.1538 8.68011 19.9607 8.2138 19.6168 7.86998C19.273 7.52616 18.8067 7.33301 18.3205 7.33301L7.32048 7.33301C5.29831 7.33301 3.65381 8.97751 3.65381 10.9997L3.65381 23.833C3.65381 24.3192 3.84696 24.7856 4.19078 25.1294C4.5346 25.4732 5.00091 25.6663 5.48714 25.6663H11.1301C11.0914 26.5727 10.8206 27.454 10.3436 28.2257C9.41231 29.6942 7.65781 30.697 5.12598 31.203L3.65381 31.4963L3.65381 36.6663H5.48714C10.5893 36.6663 14.4815 35.2528 17.0536 32.4643Z" fill="#BCA182"/>
	</symbol>

	<symbol width="44" height="44" viewBox="0 0 44 44" fill="none" xmlns="http://www.w3.org/2000/svg" id="quote-left">
		<path d="M6.76686 11.5357C3.30736 15.2903 3.65569 20.112 3.66669 20.167L3.66669 34.8337C3.66669 35.3199 3.85984 35.7862 4.20366 36.13C4.54748 36.4738 5.01379 36.667 5.50002 36.667L16.5 36.667C18.5222 36.667 20.1667 35.0225 20.1667 33.0003L20.1667 20.167C20.1667 19.6808 19.9735 19.2144 19.6297 18.8706C19.2859 18.5268 18.8196 18.3337 18.3334 18.3337L12.6904 18.3337C12.7291 17.4273 12.9999 16.546 13.4769 15.7743C14.4082 14.3058 16.1627 13.303 18.6945 12.797L20.1667 12.5037L20.1667 7.33366L18.3334 7.33366C13.2312 7.33366 9.33903 8.74716 6.76686 11.5357ZM26.9464 11.5357C23.485 15.2903 23.8352 20.112 23.8462 20.167L23.8462 34.8337C23.8462 35.3199 24.0393 35.7862 24.3832 36.13C24.727 36.4738 25.1933 36.667 25.6795 36.667L36.6795 36.667C38.7017 36.667 40.3462 35.0225 40.3462 33.0003L40.3462 20.167C40.3462 19.6808 40.153 19.2144 39.8092 18.8706C39.4654 18.5268 38.9991 18.3337 38.5129 18.3337L32.8699 18.3337C32.9086 17.4273 33.1794 16.546 33.6564 15.7743C34.5877 14.3058 36.3422 13.303 38.874 12.797L40.3462 12.5037L40.3462 7.33366L38.5129 7.33366C33.4107 7.33366 29.5185 8.74716 26.9464 11.5357Z" fill="#BCA182"/>
	</symbol>

	<symbol width="30" height="30" viewBox="0 0 30 30" fill="none" xmlns="http://www.w3.org/2000/svg" id="white-arrow-right">
		<g clip-path="url(#clip0_350_647)">
			<path d="M10.0425 28.6668L10 28.6243L23.26 15.333L10 2.04055L10.0425 1.99805L16.6912 1.99805L30 15.3318L16.6912 28.6643L10.0425 28.6668Z" fill="white"/>
			<path d="M1.90735e-05 13.1133L23.3325 13.1133L23.3325 17.557L1.88792e-05 17.557L1.90735e-05 13.1133Z" fill="white"/>
		</g>
		<defs>
			<clipPath id="clip0_350_647">
				<rect width="30" height="30" fill="white" transform="translate(30) rotate(90)"/>
			</clipPath>
		</defs>
	</symbol>

	<symbol width="93" height="93" viewBox="0 0 93 93" fill="none" xmlns="http://www.w3.org/2000/svg" id="video-button">
		<path d="M31.9687 66.8442C31.198 66.8442 30.4587 66.538 29.9137 65.9929C29.3687 65.4479 29.0625 64.7087 29.0625 63.9379V29.0629C29.0628 28.5677 29.1896 28.0808 29.4309 27.6483C29.6721 27.2159 30.0199 26.8523 30.4412 26.592C30.8625 26.3317 31.3433 26.1834 31.838 26.1611C32.3327 26.1389 32.8249 26.2434 33.2678 26.4647L68.1428 43.9022C68.6249 44.1438 69.0303 44.5148 69.3136 44.9737C69.5969 45.4325 69.7469 45.9611 69.7469 46.5004C69.7469 47.0397 69.5969 47.5683 69.3136 48.0271C69.0303 48.486 68.6249 48.857 68.1428 49.0986L33.2678 66.5361C32.8645 66.7381 32.4198 66.8436 31.9687 66.8442ZM34.875 33.7652V59.2356L60.3454 46.5004L34.875 33.7652Z" fill="white"/>
		<path d="M46.5 11.625C53.3976 11.625 60.1404 13.6704 65.8755 17.5025C71.6107 21.3346 76.0807 26.7813 78.7203 33.1539C81.3599 39.5265 82.0506 46.5387 80.7049 53.3038C79.3592 60.0689 76.0377 66.283 71.1604 71.1603C66.283 76.0377 60.0689 79.3592 53.3038 80.7049C46.5387 82.0505 39.5265 81.3599 33.1539 78.7203C26.7814 76.0807 21.3346 71.6107 17.5025 65.8755C13.6704 60.1404 11.625 53.3976 11.625 46.5C11.625 37.2506 15.2993 28.38 21.8397 21.8397C28.38 15.2993 37.2506 11.625 46.5 11.625ZM46.5 5.8125C38.4528 5.8125 30.5863 8.19878 23.8953 12.6696C17.2042 17.1404 11.9892 23.4949 8.90967 30.9296C5.83013 38.3642 5.02438 46.5451 6.59432 54.4377C8.16425 62.3303 12.0394 69.5802 17.7296 75.2704C23.4199 80.9607 30.6697 84.8358 38.5623 86.4057C46.4549 87.9756 54.6358 87.1699 62.0704 84.0903C69.5051 81.0108 75.8596 75.7958 80.3304 69.1048C84.8012 62.4137 87.1875 54.5472 87.1875 46.5C87.1875 35.709 82.9008 25.36 75.2704 17.7296C67.64 10.0992 57.291 5.8125 46.5 5.8125Z" fill="white"/>
	</symbol>



</svg>